<?xml version="1.0" encoding="utf-8"?>
<!-- Generator: Adobe Illustrator 16.0.0, SVG Export Plug-In . SVG Version: 6.00 Build 0)  -->
<!DOCTYPE svg PUBLIC "-//W3C//DTD SVG 1.1//EN" "http://www.w3.org/Graphics/SVG/1.1/DTD/svg11.dtd">
<svg version="1.1" id="Capa_1" xmlns="http://www.w3.org/2000/svg" xmlns:xlink="http://www.w3.org/1999/xlink" x="0px" y="0px"
	 width="160px" height="36.5px" viewBox="0 0 160 36.5" enable-background="new 0 0 160 36.5" xml:space="preserve">
<desc>Created with Sketch.</desc>
<g id="Page-1" transform="translate(28.000000, 29.000000)">
	<path id="Fill-1" fill="#FFFFFF" d="M4.041-17.104c-1.111,0-2.095,0.367-2.952,1.1c-0.857,0.734-1.284,1.753-1.284,3.058
		c0,0.243,0.008,0.427,0.028,0.549l7.081-2.903C6.652-16.502,5.693-17.104,4.041-17.104 M3.89-7.875
		c0.866,0,1.709-0.218,2.525-0.655c0.818-0.438,1.468-1.024,1.954-1.758l2.602,2.843C8.893-5.225,6.547-4.113,3.936-4.113
		c-2.614,0-4.698-0.806-6.25-2.416c-1.553-1.609-2.329-3.662-2.329-6.158s0.851-4.518,2.557-6.066
		c1.703-1.549,3.666-2.322,5.884-2.322c2.221,0,4.075,0.631,5.568,1.893c1.493,1.266,2.3,2.895,2.421,4.891v0.581L0.954-9.189
		C1.639-8.313,2.617-7.875,3.89-7.875"/>
	<g id="Group-5" transform="translate(40.955721, 0.123455)">
		<g id="Clip-4">
		</g>
		<defs>
			<filter id="Adobe_OpacityMaskFilter" filterUnits="userSpaceOnUse" x="-25.93" y="-27.161" width="15.22" height="22.678">
				<feColorMatrix  type="matrix" values="1 0 0 0 0  0 1 0 0 0  0 0 1 0 0  0 0 0 1 0"/>
			</filter>
		</defs>
		<mask maskUnits="userSpaceOnUse" x="-25.93" y="-27.161" width="15.22" height="22.678" id="mask-2">
			<g filter="url(#Adobe_OpacityMaskFilter)">
				<polygon id="path-1" fill="#FFFFFF" points="-10.71,-27.159 -25.93,-27.159 -25.93,-4.483 -10.71,-4.483 				"/>
			</g>
		</mask>
		<path id="Fill-3" mask="url(#mask-2)" fill="#FFFFFF" d="M-21.391-13.346v8.863h-4.539v-22.678h4.539v8.07
			c1.372-1.406,2.909-2.11,4.615-2.11c1.703,0,3.141,0.61,4.313,1.835c1.168,1.221,1.754,2.852,1.754,4.889v9.994h-4.539v-8.986
			c0-2.525-0.917-3.789-2.753-3.789c-0.907,0-1.7,0.331-2.377,0.992C-21.054-15.602-21.391-14.629-21.391-13.346"/>
	</g>
	<path id="Fill-6" fill="#FFFFFF" d="M38.115-12.551c0,1.345,0.393,2.441,1.179,3.285c0.788,0.848,1.706,1.27,2.755,1.27
		s1.938-0.422,2.664-1.27c0.725-0.844,1.088-1.934,1.088-3.269s-0.363-2.45-1.088-3.347c-0.727-0.896-1.625-1.346-2.695-1.346
		c-1.068,0-1.986,0.443-2.754,1.33C38.498-15.01,38.115-13.895,38.115-12.551 M35.876-6.469c-1.554-1.568-2.329-3.63-2.329-6.188
		c0-2.557,0.795-4.6,2.389-6.129c1.594-1.527,3.44-2.291,5.539-2.291c1.633,0,3.056,0.549,4.266,1.65v-1.377h4.569v16.444H45.74
		v-1.347c-1.291,1.061-2.764,1.592-4.418,1.592C39.244-4.113,37.43-4.899,35.876-6.469"/>
	<path id="Fill-8" fill="#FFFFFF" d="M59.329-25.723v4.922h3.933v3.574h-3.933v7.091c0,0.632,0.161,1.126,0.483,1.483
		c0.322,0.355,0.705,0.533,1.15,0.533c0.848,0,1.563-0.387,2.148-1.16l1.693,3.209c-1.412,1.304-2.9,1.956-4.463,1.956
		c-1.564,0-2.886-0.521-3.965-1.56S54.76-8.128,54.76-9.922v-15.801H59.329z"/>
	<path id="Fill-10" fill="#FFFFFF" d="M75.729-16.768c-1.35,0-2.359,0.484-3.024,1.451c-0.667,0.969-1.001,2.246-1.001,3.836v7.121
		h-4.537v-16.442h4.537v2.17c0.586-0.673,1.317-1.243,2.195-1.712c0.877-0.467,1.77-0.713,2.68-0.733l0.027,4.31H75.729z"/>
	<path id="Fill-12" fill="#FFFFFF" d="M83.205-12.551c0,1.345,0.393,2.441,1.178,3.285c0.788,0.848,1.707,1.27,2.756,1.27
		s1.938-0.422,2.663-1.27c0.725-0.844,1.089-1.934,1.089-3.269s-0.364-2.45-1.089-3.347c-0.726-0.896-1.626-1.346-2.694-1.346
		s-1.986,0.443-2.754,1.33C83.588-15.01,83.205-13.895,83.205-12.551 M80.965-6.469c-1.553-1.568-2.33-3.63-2.33-6.188
		c0-2.557,0.796-4.6,2.391-6.129c1.594-1.527,3.439-2.291,5.538-2.291c1.634,0,3.056,0.549,4.266,1.65v-1.377h4.569v16.444h-4.569
		v-1.347c-1.29,1.061-2.763,1.592-4.417,1.592C84.333-4.113,82.518-4.899,80.965-6.469"/>
	<path id="Fill-14" fill="#FFFFFF" d="M104.387-13.528v9.169h-4.538v-16.442h4.538v1.835c1.372-1.406,2.916-2.11,4.631-2.11
		s3.152,0.61,4.312,1.835c1.159,1.221,1.739,2.852,1.739,4.889v9.994h-4.538v-9.291c0-2.527-0.919-3.789-2.753-3.789
		c-0.908,0-1.7,0.33-2.378,0.992C104.725-15.784,104.387-14.813,104.387-13.528"/>
	<path id="Fill-16" fill="#FFFFFF" d="M131.44-9.479c0,1.621-0.589,2.92-1.769,3.896c-1.182,0.979-2.68,1.468-4.494,1.468
		c-1.211,0-2.472-0.22-3.782-0.657c-1.313-0.439-2.493-1.084-3.541-1.94l1.997-2.874c1.695,1.326,3.498,1.988,5.416,1.988
		c0.584,0,1.049-0.118,1.393-0.352c0.343-0.234,0.515-0.547,0.515-0.933c0-0.387-0.237-0.745-0.71-1.069
		c-0.477-0.326-1.163-0.631-2.059-0.918c-0.9-0.285-1.584-0.529-2.06-0.733c-0.474-0.204-1.013-0.499-1.618-0.886
		c-1.229-0.775-1.846-1.92-1.846-3.438c0-1.518,0.605-2.755,1.814-3.713c1.211-0.958,2.774-1.437,4.693-1.437
		c1.915,0,3.83,0.652,5.748,1.955l-1.695,3.057c-1.412-0.979-2.82-1.467-4.221-1.467c-1.402,0-2.104,0.387-2.104,1.16
		c0,0.429,0.223,0.766,0.666,1.01c0.442,0.244,1.18,0.529,2.21,0.855c1.028,0.326,1.758,0.576,2.192,0.75
		c0.434,0.173,0.953,0.441,1.559,0.809C130.875-12.255,131.44-11.098,131.44-9.479"/>
	<g id="Group-20" transform="translate(0.000000, 0.123455)">
		<g id="Clip-19">
		</g>
		<defs>
			<filter id="Adobe_OpacityMaskFilter_1_" filterUnits="userSpaceOnUse" x="-26.25" y="-27.14" width="27.497" height="33.017">
				<feColorMatrix  type="matrix" values="1 0 0 0 0  0 1 0 0 0  0 0 1 0 0  0 0 0 1 0"/>
			</filter>
		</defs>
		<mask maskUnits="userSpaceOnUse" x="-26.25" y="-27.14" width="27.497" height="33.017" id="mask-4">
			<g filter="url(#Adobe_OpacityMaskFilter_1_)">
				<polygon id="path-3" fill="#FFFFFF" points="1.247,5.877 -26.25,5.877 -26.25,-27.14 1.247,-27.14 				"/>
			</g>
		</mask>
		<path id="Fill-18" mask="url(#mask-4)" fill="#FFFFFF" d="M-11.941-12.189c2.924-1.087,4.386-3.497,4.386-7.226
			c0-2.708-0.764-4.673-2.292-5.893c-1.528-1.223-4.083-1.833-7.665-1.833h-8.738v23.276l5.143-2.475v-4.951h0.001v-4.496h-0.001
			v-6.893h3.858c1.649,0,2.802,0.232,3.462,0.701c0.658,0.465,0.989,1.326,0.989,2.58s-0.319,2.17-0.956,2.746
			c-0.638,0.577-1.835,0.865-3.593,0.865h-0.635v4.496h0.012L-5.084,5.877h6.331L-11.941-12.189z"/>
	</g>
</g>
</svg>
